<?xml version="1.0" encoding="UTF-8"?>
<svg id="_レイヤー_1" data-name="レイヤー_1" xmlns="http://www.w3.org/2000/svg" version="1.1" viewBox="0 0 640 128">
  <!-- Generator: Adobe Illustrator 30.2.1, SVG Export Plug-In . SVG Version: 2.1.1 Build 1)  -->
  <defs>
    <style>
      .st0 {
        fill: #fff;
      }

      .st1 {
        display: none;
        fill: gray;
      }
    </style>
  </defs>
  <rect class="st1" x="-7.66" y="-9.6" width="653.88" height="150"/>
  <g>
    <g>
      <path class="st0" d="M28.06,214.29h4.84v19.98l18.33-19.98h5.66l-19.15,21.32,21,23.35h-6.3l-19.53-21.7v21.7h-4.84v-44.67Z"/>
      <path class="st0" d="M67.76,251.7c2.17,0,3.92,1.7,4.01,3.85s-1.67,3.92-3.78,4.03c-2.27.12-4.11-1.57-4.11-3.87s1.72-4.01,3.88-4.01Z"/>
      <path class="st0" d="M102.44,214.29l-14.83,22.33v22.33h-4.84v-22.33l-14.7-22.33h5.66l11.64,17.5,11.77-17.5h5.28Z"/>
      <path class="st0" d="M97.29,258.96l20.04-45.24h.89l19.79,45.24h-5.22l-4.71-11.01h-20.81l-4.77,11.01h-5.22ZM108.93,244.07h17.37l-8.59-20.49-8.78,20.49Z"/>
      <path class="st0" d="M143.81,258.96v-44.92l.83-.32,17.37,18.33,17.24-18.33.83.32v44.92h-4.71v-34.68l-13.04,14.06h-.76l-12.98-14.06v34.68h-4.77Z"/>
      <path class="st0" d="M185.68,258.96l20.04-45.24h.89l19.79,45.24h-5.22l-4.71-11.01h-20.81l-4.77,11.01h-5.22ZM197.32,244.07h17.37l-8.59-20.49-8.78,20.49Z"/>
      <path class="st0" d="M263.06,214.29v44.67h-4.65v-20.49l-21.64-15.97v36.46h-4.58v-44.8l.7-.45,25.52,19.03v-18.45h4.65Z"/>
      <path class="st0" d="M268.66,258.96l20.04-45.24h.89l19.79,45.24h-5.22l-4.71-11.01h-20.81l-4.77,11.01h-5.22ZM280.3,244.07h17.37l-8.59-20.49-8.78,20.49Z"/>
      <path class="st0" d="M315.17,214.29h4.84v19.98l18.33-19.98h5.66l-19.15,21.32,21,23.35h-6.3l-19.53-21.7v21.7h-4.84v-44.67Z"/>
      <path class="st0" d="M348.64,258.96l20.04-45.24h.89l19.79,45.24h-5.22l-4.71-11.01h-20.81l-4.77,11.01h-5.22ZM360.29,244.07h17.37l-8.59-20.49-8.78,20.49Z"/>
    </g>
    <g>
      <path class="st0" d="M427.99,245.21v13.81h-4.77v-44.41c15.02-3.31,25.77,3.12,25.77,14.38s-9.48,17.18-21,16.23ZM427.99,240.88c10.12.95,16.1-4.33,16.1-11.9,0-7.06-6.17-12.28-16.1-10.63v22.53Z"/>
      <path class="st0" d="M450.64,246.16c0-8.46,6.81-13.49,13.74-13.49s13.68,5.03,13.68,13.49-6.81,13.68-13.81,13.68-13.62-5.22-13.62-13.68ZM473.49,246.16c0-5.98-4.2-9.93-9.23-9.93s-9.16,4.01-9.16,9.93,4.2,10.05,9.23,10.05,9.16-4.14,9.16-10.05Z"/>
      <path class="st0" d="M483.86,233.5h2.42l1.85,2.93c.89-1.97,3.24-3.69,6.17-3.69,1.27,0,2.16.25,3.5.83l-.83,3.95-.38.13c-.83-.51-1.91-.76-2.93-.76-2.42,0-4.26,1.27-5.41,3.75v18.39h-4.39v-25.52Z"/>
      <path class="st0" d="M509.5,237.13v14.44c0,4.14,3.37,4.96,6.43,3.88l.83,3.56c-5.79,1.59-11.71-.13-11.71-7.38v-14.51h-4.33v-.51l.45-3.12h3.88v-8.91l4.07-.83h.38v9.74h6.55v3.63h-6.55Z"/>
      <path class="st0" d="M528.59,233.5h6.74v3.63h-6.74v21.89h-4.45v-21.89h-3.88v-.51l.51-3.12h3.37v-10.37c0-8.14,6.11-10.82,11.71-9.23l-.45,3.63c-3.25-.89-6.87.7-6.81,5.66v10.31Z"/>
      <path class="st0" d="M537.88,246.16c0-8.46,6.81-13.49,13.74-13.49s13.68,5.03,13.68,13.49-6.81,13.68-13.81,13.68-13.62-5.22-13.62-13.68ZM560.73,246.16c0-5.98-4.2-9.93-9.23-9.93s-9.16,4.01-9.16,9.93,4.2,10.05,9.23,10.05,9.16-4.14,9.16-10.05Z"/>
      <path class="st0" d="M575.56,259.02h-4.45v-44.67l4.01-.76h.45v45.43Z"/>
      <path class="st0" d="M586.18,219.44c2.04,0,3.63,1.65,3.63,3.63s-1.59,3.56-3.63,3.56c-1.91,0-3.56-1.53-3.56-3.56s1.65-3.63,3.56-3.63ZM584.02,233.5h4.45v25.52h-4.45v-25.52Z"/>
      <path class="st0" d="M595.03,246.16c0-8.46,6.81-13.49,13.74-13.49s13.68,5.03,13.68,13.49-6.81,13.68-13.81,13.68-13.62-5.22-13.62-13.68ZM617.87,246.16c0-5.98-4.2-9.93-9.23-9.93s-9.16,4.01-9.16,9.93,4.2,10.05,9.23,10.05,9.16-4.14,9.16-10.05Z"/>
    </g>
  </g>
  <g>
    <path class="st0" d="M34.25,86.34l-15.2-22.54-8.32,10.22v12.32h-5.63v-45.21h5.63v24.31l19.65-24.31h7.27l-14.87,18.15,18.21,27.06h-6.75Z"/>
    <path class="st0" d="M52.86,86.34h-7.6v-7.6h7.6v7.6Z"/>
    <path class="st0" d="M61.44,41.13l10.29,19.65,10.29-19.65h6.62l-14.09,25.81v19.39h-5.63v-19.39l-14.09-25.81h6.62Z"/>
    <path class="st0" d="M87.32,86.34l15.72-45.21h5.24l15.72,45.21h-5.96l-3.47-10.35h-17.82l-3.47,10.35h-5.96ZM98.52,70.88h14.28l-7.14-21.23-7.14,21.23Z"/>
    <path class="st0" d="M149.3,69.31l13.5-28.17h5.57v45.21h-5.63v-33.15l-11.01,23.72h-5.04l-10.81-23.52v32.95h-5.63v-45.21h5.5l13.56,28.17Z"/>
    <path class="st0" d="M174.59,86.34l15.72-45.21h5.24l15.72,45.21h-5.96l-3.47-10.35h-17.82l-3.47,10.35h-5.96ZM185.79,70.88h14.28l-7.14-21.23-7.14,21.23Z"/>
    <path class="st0" d="M248.16,41.13v45.21h-5.5l-19.52-34.2v34.2h-5.63v-45.21h5.37l19.65,34.53v-34.53h5.63Z"/>
    <path class="st0" d="M254.39,86.34l15.72-45.21h5.24l15.72,45.21h-5.96l-3.47-10.35h-17.82l-3.47,10.35h-5.96ZM265.59,70.88h14.28l-7.14-21.23-7.14,21.23Z"/>
    <path class="st0" d="M326.45,86.34l-15.2-22.54-8.32,10.22v12.32h-5.63v-45.21h5.63v24.31l19.65-24.31h7.27l-14.87,18.15,18.21,27.06h-6.75Z"/>
    <path class="st0" d="M334.19,86.34l15.72-45.21h5.24l15.72,45.21h-5.96l-3.47-10.35h-17.82l-3.47,10.35h-5.96ZM345.39,70.88h14.28l-7.14-21.23-7.14,21.23Z"/>
    <path class="st0" d="M415.49,69.11v17.23h-5.63v-45.21h14.41c10.42,0,16.44,5.24,16.44,14.02s-5.96,13.95-16.44,13.95h-8.78ZM424.27,64c7.67,0,10.81-3.28,10.81-8.84s-3.14-8.91-10.81-8.91h-8.78v17.75h8.78Z"/>
    <path class="st0" d="M471.12,72.06c0,8.52-4.19,14.81-13.63,14.81-8.71,0-13.63-5.77-13.63-14.81v-4.32c0-9.3,5.04-14.68,13.63-14.68s13.63,5.31,13.63,14.68v4.32ZM465.88,72.06v-4.32c0-6.22-3.01-9.96-8.39-9.96s-8.39,3.8-8.39,9.96v4.32c0,5.63,2.36,10.09,8.39,10.09,5.57,0,8.39-4.52,8.39-10.09Z"/>
    <path class="st0" d="M495.75,60.66c-1.38-1.9-3.08-2.75-5.5-2.75-4,0-7.01,3.01-7.01,7.93v20.51h-5.24v-32.76h5.24v3.21c1.38-2.29,3.6-3.73,7.6-3.73,4.46,0,7.27,1.51,9.37,4.46l-4.46,3.14Z"/>
    <path class="st0" d="M500.93,53.58h4.19v-7.21h5.24v7.21h7.53v4.72h-7.53v16.64c0,4.52.52,6.42,4.91,6.42h2.62v4.98h-2.82c-7.73,0-9.96-3.28-9.96-10.09v-17.95h-4.19v-4.72Z"/>
    <path class="st0" d="M525.76,53.58v-2.36c0-6.81,2.23-10.09,9.96-10.09h1.51v4.98h-1.31c-4.39,0-4.91,1.9-4.91,6.42v1.05h6.22v4.72h-6.22v28.04h-5.24v-28.04h-4.19v-4.72h4.19Z"/>
    <path class="st0" d="M568.74,72.06c0,8.52-4.19,14.81-13.63,14.81-8.71,0-13.63-5.77-13.63-14.81v-4.32c0-9.3,5.04-14.68,13.63-14.68s13.63,5.31,13.63,14.68v4.32ZM563.5,72.06v-4.32c0-6.22-3.01-9.96-8.39-9.96s-8.39,3.8-8.39,9.96v4.32c0,5.63,2.36,10.09,8.39,10.09,5.57,0,8.39-4.52,8.39-10.09Z"/>
    <path class="st0" d="M575.61,41.13h5.24v33.81c0,3.54.2,6.55,5.57,6.55v4.85c-8.25,0-10.81-3.28-10.81-10.09v-35.12Z"/>
    <path class="st0" d="M594.22,41.13h5.9v5.9h-5.9v-5.9ZM594.55,53.58h5.24v32.76h-5.24v-32.76Z"/>
    <path class="st0" d="M634.91,72.06c0,8.52-4.19,14.81-13.63,14.81-8.71,0-13.63-5.77-13.63-14.81v-4.32c0-9.3,5.04-14.68,13.63-14.68s13.63,5.31,13.63,14.68v4.32ZM629.67,72.06v-4.32c0-6.22-3.01-9.96-8.39-9.96s-8.39,3.8-8.39,9.96v4.32c0,5.63,2.36,10.09,8.39,10.09,5.57,0,8.39-4.52,8.39-10.09Z"/>
  </g>
</svg>