<?xml version="1.0" encoding="UTF-8"?>
<svg id="_レイヤー_1" data-name="レイヤー_1" xmlns="http://www.w3.org/2000/svg" version="1.1" viewBox="0 0 640 128">
  <!-- Generator: Adobe Illustrator 30.2.1, SVG Export Plug-In . SVG Version: 2.1.1 Build 1)  -->
  <defs>
    <style>
      .st0 {
        fill: #fff;
      }

      .st1 {
        display: none;
        fill: gray;
      }
    </style>
  </defs>
  <rect class="st1" x="-7.66" y="-9.6" width="653.88" height="150"/>
  <g>
    <path class="st0" d="M29.5-66.25l-15.2-22.54-8.32,10.22v12.32H.35v-45.21h5.63v24.31l19.65-24.31h7.27l-14.87,18.15,18.21,27.06h-6.75Z"/>
    <path class="st0" d="M48.11-66.25h-7.6v-7.6h7.6v7.6Z"/>
    <path class="st0" d="M56.69-111.45l10.29,19.65,10.29-19.65h6.62l-14.09,25.81v19.39h-5.63v-19.39l-14.09-25.81h6.62Z"/>
    <path class="st0" d="M82.57-66.25l15.72-45.21h5.24l15.72,45.21h-5.96l-3.47-10.35h-17.82l-3.47,10.35h-5.96ZM93.77-81.71h14.28l-7.14-21.23-7.14,21.23Z"/>
    <path class="st0" d="M144.55-83.28l13.5-28.17h5.57v45.21h-5.63v-33.15l-11.01,23.72h-5.04l-10.81-23.52v32.95h-5.63v-45.21h5.5l13.56,28.17Z"/>
    <path class="st0" d="M169.84-66.25l15.72-45.21h5.24l15.72,45.21h-5.96l-3.47-10.35h-17.82l-3.47,10.35h-5.96ZM181.04-81.71h14.28l-7.14-21.23-7.14,21.23Z"/>
    <path class="st0" d="M243.41-111.45v45.21h-5.5l-19.52-34.2v34.2h-5.63v-45.21h5.37l19.65,34.53v-34.53h5.63Z"/>
    <path class="st0" d="M249.64-66.25l15.72-45.21h5.24l15.72,45.21h-5.96l-3.47-10.35h-17.82l-3.47,10.35h-5.96ZM260.84-81.71h14.28l-7.14-21.23-7.14,21.23Z"/>
    <path class="st0" d="M321.71-66.25l-15.2-22.54-8.32,10.22v12.32h-5.63v-45.21h5.63v24.31l19.65-24.31h7.27l-14.87,18.15,18.21,27.06h-6.75Z"/>
    <path class="st0" d="M329.44-66.25l15.72-45.21h5.24l15.72,45.21h-5.96l-3.47-10.35h-17.82l-3.47,10.35h-5.96ZM340.64-81.71h14.28l-7.14-21.23-7.14,21.23Z"/>
    <path class="st0" d="M410.74-83.48v17.23h-5.63v-45.21h14.41c10.42,0,16.44,5.24,16.44,14.02s-5.96,13.95-16.44,13.95h-8.78ZM419.52-88.59c7.67,0,10.81-3.28,10.81-8.84s-3.14-8.91-10.81-8.91h-8.78v17.75h8.78Z"/>
    <path class="st0" d="M466.37-80.53c0,8.52-4.19,14.81-13.63,14.81-8.71,0-13.63-5.77-13.63-14.81v-4.32c0-9.3,5.04-14.68,13.63-14.68s13.63,5.31,13.63,14.68v4.32ZM461.13-80.53v-4.32c0-6.22-3.01-9.96-8.39-9.96s-8.39,3.8-8.39,9.96v4.32c0,5.63,2.36,10.09,8.39,10.09,5.57,0,8.39-4.52,8.39-10.09Z"/>
    <path class="st0" d="M491-91.93c-1.38-1.9-3.08-2.75-5.5-2.75-4,0-7.01,3.01-7.01,7.93v20.51h-5.24v-32.76h5.24v3.21c1.38-2.29,3.6-3.73,7.6-3.73,4.46,0,7.27,1.51,9.37,4.46l-4.46,3.14Z"/>
    <path class="st0" d="M496.18-99.01h4.19v-7.21h5.24v7.21h7.53v4.72h-7.53v16.64c0,4.52.52,6.42,4.91,6.42h2.62v4.98h-2.82c-7.73,0-9.96-3.28-9.96-10.09v-17.95h-4.19v-4.72Z"/>
    <path class="st0" d="M521.01-99.01v-2.36c0-6.81,2.23-10.09,9.96-10.09h1.51v4.98h-1.31c-4.39,0-4.91,1.9-4.91,6.42v1.05h6.22v4.72h-6.22v28.04h-5.24v-28.04h-4.19v-4.72h4.19Z"/>
    <path class="st0" d="M563.99-80.53c0,8.52-4.19,14.81-13.63,14.81-8.71,0-13.63-5.77-13.63-14.81v-4.32c0-9.3,5.04-14.68,13.63-14.68s13.63,5.31,13.63,14.68v4.32ZM558.75-80.53v-4.32c0-6.22-3.01-9.96-8.39-9.96s-8.39,3.8-8.39,9.96v4.32c0,5.63,2.36,10.09,8.39,10.09,5.57,0,8.39-4.52,8.39-10.09Z"/>
    <path class="st0" d="M570.87-111.45h5.24v33.81c0,3.54.2,6.55,5.57,6.55v4.85c-8.25,0-10.81-3.28-10.81-10.09v-35.12Z"/>
    <path class="st0" d="M589.47-111.45h5.9v5.9h-5.9v-5.9ZM589.8-99.01h5.24v32.76h-5.24v-32.76Z"/>
    <path class="st0" d="M630.16-80.53c0,8.52-4.19,14.81-13.63,14.81-8.71,0-13.63-5.77-13.63-14.81v-4.32c0-9.3,5.04-14.68,13.63-14.68s13.63,5.31,13.63,14.68v4.32ZM624.92-80.53v-4.32c0-6.22-3.01-9.96-8.39-9.96s-8.39,3.8-8.39,9.96v4.32c0,5.63,2.36,10.09,8.39,10.09,5.57,0,8.39-4.52,8.39-10.09Z"/>
  </g>
  <g>
    <g>
      <path d="M52.38,102.71l-26.03-38.6-14.25,17.5v21.09H2.45V25.29h9.65v41.63L45.76,25.29h12.45l-25.47,31.08,31.19,46.34h-11.56Z"/>
      <path d="M85.71,75.47h11.13v-5.42c0-6.64-3.09-8.13-10.38-8.13-5.61,0-8.6.47-11.22,4.77l-5.61-3.93c3.27-5.42,8.04-7.76,16.92-7.76,11.87,0,17.76,3.83,17.76,15.05v32.44h-7.48v-4.58c-2.62,4.3-5.8,5.33-11.87,5.33-10.85,0-16.73-5.33-16.73-14.4,0-10.1,7.2-13.37,17.48-13.37ZM96.84,81.83h-11.13c-7.39,0-10,2.52-10,7.2,0,5.24,3.74,7.29,9.26,7.29,6.92,0,11.87-1.31,11.87-11.78v-2.71Z"/>
      <path d="M153.03,82.11c0,12.15-5.98,21.13-19.45,21.13-12.43,0-19.45-8.23-19.45-21.13v-6.17c0-13.28,7.2-20.94,19.45-20.94s19.45,7.57,19.45,20.94v6.17ZM145.55,82.11v-6.17c0-8.88-4.3-14.21-11.97-14.21s-11.97,5.42-11.97,14.21v6.17c0,8.04,3.37,14.4,11.97,14.4,7.95,0,11.97-6.45,11.97-14.4Z"/>
      <path d="M188.18,65.84c-1.96-2.71-4.39-3.93-7.85-3.93-5.7,0-10,4.3-10,11.31v29.26h-7.48v-46.75h7.48v4.58c1.96-3.27,5.14-5.33,10.84-5.33,6.36,0,10.38,2.15,13.37,6.36l-6.36,4.49Z"/>
      <path d="M200.61,37.98h8.41v8.41h-8.41v-8.41ZM201.08,55.75h7.48v46.75h-7.48v-46.75Z"/>
    </g>
    <g>
      <path d="M246.82,24.43l17.89,34.18,17.89-34.18h11.51l-24.49,44.89v33.72h-9.8v-33.72l-24.49-44.89h11.51Z"/>
      <path d="M306.53,75.38h11.3v-5.51c0-6.74-3.13-8.26-10.54-8.26-5.7,0-8.73.47-11.39,4.84l-5.7-3.99c3.32-5.51,8.16-7.88,17.18-7.88,12.06,0,18.04,3.89,18.04,15.28v32.94h-7.59v-4.65c-2.66,4.37-5.89,5.41-12.06,5.41-11.01,0-16.99-5.41-16.99-14.62,0-10.25,7.31-13.57,17.75-13.57ZM317.83,81.84h-11.3c-7.5,0-10.16,2.56-10.16,7.31,0,5.32,3.8,7.4,9.4,7.4,7.02,0,12.06-1.33,12.06-11.96v-2.75Z"/>
      <path d="M337.76,55.35h7.59v4.65c2.09-3.23,5.7-5.41,11.77-5.41s11.2,2.56,13.86,7.5c3.23-5.03,8.45-7.5,14.24-7.5,10.16,0,16.33,6.27,16.33,18.61v29.62h-7.59v-29.52c0-8.64-4.27-11.68-9.87-11.68-6.08,0-10.63,4.84-10.63,11.58v29.62h-7.59v-29.52c0-8.64-4.27-11.68-9.87-11.68-6.17,0-10.63,5.03-10.63,11.58v29.62h-7.59v-47.46Z"/>
      <path d="M429.27,75.38h11.3v-5.51c0-6.74-3.13-8.26-10.54-8.26-5.7,0-8.73.47-11.39,4.84l-5.7-3.99c3.32-5.51,8.16-7.88,17.18-7.88,12.06,0,18.04,3.89,18.04,15.28v32.94h-7.59v-4.65c-2.66,4.37-5.89,5.41-12.06,5.41-11.01,0-16.99-5.41-16.99-14.62,0-10.25,7.31-13.57,17.75-13.57ZM440.57,81.84h-11.3c-7.5,0-10.16,2.56-10.16,7.31,0,5.32,3.8,7.4,9.4,7.4,7.02,0,12.06-1.33,12.06-11.96v-2.75Z"/>
      <path d="M460.51,55.35h7.59v4.65c2.37-3.61,5.7-5.41,12.72-5.41,10.16,0,17.28,5.32,17.28,18.61v29.62h-7.59v-29.52c0-9.59-5.22-11.68-10.82-11.68-7.12,0-11.58,5.03-11.58,11.58v29.62h-7.59v-47.46Z"/>
      <path d="M525.82,75.38h11.3v-5.51c0-6.74-3.13-8.26-10.54-8.26-5.7,0-8.73.47-11.39,4.84l-5.7-3.99c3.32-5.51,8.16-7.88,17.18-7.88,12.06,0,18.04,3.89,18.04,15.28v32.94h-7.59v-4.65c-2.66,4.37-5.89,5.41-12.06,5.41-11.01,0-16.99-5.41-16.99-14.62,0-10.25,7.31-13.57,17.75-13.57ZM537.11,81.84h-11.3c-7.5,0-10.16,2.56-10.16,7.31,0,5.32,3.8,7.4,9.4,7.4,7.02,0,12.06-1.33,12.06-11.96v-2.75Z"/>
      <path d="M593.69,55.35l-20.5,20.98,23.45,26.48h-9.87l-19.18-20.69-2.94,3.13v17.56h-7.59V37.31h7.59v37.4l19.18-19.36h9.87Z"/>
      <path d="M618.66,75.38h11.3v-5.51c0-6.74-3.13-8.26-10.54-8.26-5.7,0-8.73.47-11.39,4.84l-5.7-3.99c3.32-5.51,8.16-7.88,17.18-7.88,12.06,0,18.04,3.89,18.04,15.28v32.94h-7.59v-4.65c-2.66,4.37-5.89,5.41-12.06,5.41-11.01,0-16.99-5.41-16.99-14.62,0-10.25,7.31-13.57,17.75-13.57ZM629.96,81.84h-11.3c-7.5,0-10.16,2.56-10.16,7.31,0,5.32,3.8,7.4,9.4,7.4,7.02,0,12.06-1.33,12.06-11.96v-2.75Z"/>
    </g>
  </g>
</svg>